<svg width="377" height="356" viewBox="0 0 377 356" fill="none" xmlns="http://www.w3.org/2000/svg">
<g clip-path="url(#clip0_202_6)">
<path d="M370.48 165.233C369.55 162.993 368.32 161.143 367.2 159.013C365.97 156.853 364.68 154.693 363.29 152.643C357.71 144.453 350.38 137.383 342.04 132.023C341.29 131.543 340.48 131.063 339.73 130.653C336.01 128.453 331.98 126.413 329.98 122.653C328.45 119.713 328.45 116.333 328.3 113.013C326.59 60.6131 285.31 12.1431 233.87 1.98306C182.43 -8.09694 125.86 21.1631 104.41 69.0231C103.45 71.2531 102.41 73.6631 100.36 74.9731C97.7998 76.6531 94.4398 76.1631 91.4298 75.7831C87.3698 75.3031 83.3598 75.1531 79.2998 75.3431C79.2598 75.3031 79.1398 75.3031 79.1098 75.3031C55.5098 76.1531 32.4298 87.4431 17.6898 105.833C0.399792 127.453 -4.74021 158.233 4.59979 184.323C13.9498 210.423 37.4698 230.933 64.5998 236.653C65.4498 236.843 66.3498 237.023 67.2098 237.253C68.7298 237.693 70.1498 238.333 71.1498 239.483C72.7898 241.453 72.8298 244.253 72.7498 246.813C72.5598 254.523 72.3098 262.233 72.1198 270.003C71.8898 277.633 71.8898 285.863 76.3998 292.073C78.0398 294.303 80.4598 295.903 83.0998 296.753C83.4698 296.913 83.8498 297.023 84.2198 297.123C88.6498 298.243 93.4098 297.283 95.6898 293.363C96.6898 291.693 97.0698 289.723 97.2098 287.783C97.3198 286.783 104.09 284.433 105.07 283.983C107.86 282.863 110.73 281.903 113.63 281.083C113.85 280.963 114.03 280.923 114.3 280.893C114.41 280.813 114.53 280.773 114.67 280.773C125.83 277.723 137.63 276.793 149.17 276.823C155.83 276.863 162.41 276.903 169 277.153C172.2 277.313 175.37 277.493 178.57 277.833C180.65 277.983 182.69 278.233 184.78 278.503C207.23 281.513 229.26 288.063 247.98 301.053C252.03 303.883 256.5 306.263 261.41 307.233C281.21 311.183 287.31 295.033 289.7 281.073C289.97 279.313 290.26 277.533 291.41 276.233C293.27 273.993 296.62 273.923 299.53 273.883C325.77 273.693 351.45 259.213 365.23 236.923C370.43 228.433 373.9 218.943 375.57 209.183C377.17 199.323 376.98 189.163 374.94 179.413C373.94 174.533 372.45 169.733 370.47 165.193L370.48 165.233ZM350.19 207.513C344.76 231.743 320.19 250.093 295.4 248.493C292.99 248.343 291.31 247.453 290.75 244.963C289.52 239.273 289.08 233.243 288.52 227.463C287.96 221.393 287.59 215.363 287.69 209.263C287.73 205.393 287.95 201.483 288.4 197.653C289.26 190.013 291.08 182.313 294.03 175.173C296.93 168.063 300.99 161.393 306.31 155.823C286.65 167.883 275.41 190.283 270.58 212.803C268.15 224.043 267.08 235.553 266.49 247.053C265.81 258.593 265.6 270.123 264.85 281.663C264.85 281.113 260.61 278.873 260.01 278.503C258.3 277.423 256.58 276.343 254.8 275.343C251.37 273.333 247.84 271.473 244.26 269.753C237.04 266.253 229.56 263.283 221.86 260.853C212.71 257.873 203.25 255.833 193.73 254.453C189.6 253.823 185.42 253.413 181.29 253.183C176.42 252.893 171.54 252.893 166.7 253.183C152.41 253.933 138.26 256.943 124.76 262.013C119.7 263.913 114.71 266.143 109.94 268.753C107.63 270.063 105.41 271.433 103.21 272.923C102.36 273.513 97.3298 276.383 97.3298 277.383C97.3298 258.483 97.2598 239.653 97.2598 220.813C97.2598 220.523 97.3298 220.263 97.2598 219.963V213.453C96.8898 201.693 95.1398 188.103 90.8598 176.313C87.0998 165.843 81.3698 156.733 72.9498 151.483C71.1598 150.773 69.6398 150.003 67.9298 149.553C70.8298 155.873 72.2398 161.393 73.3998 167.123C73.8798 169.053 74.1798 171.003 74.3598 173.043C74.8498 176.843 74.9198 180.673 74.8098 184.543C74.6598 193.063 73.5398 202.603 72.1298 211.123C72.1298 211.163 72.1298 211.203 72.0898 211.273C72.0498 211.723 71.9398 212.203 71.8598 212.643C51.5698 209.223 33.7598 193.893 27.3798 174.353C20.9798 154.733 26.3798 131.773 40.8198 117.073C42.6698 115.173 44.6898 113.423 46.8498 111.823C58.7998 102.823 74.2398 99.9531 88.9798 102.263C94.7098 103.153 100.52 104.273 106.14 105.573C110.09 106.503 113.92 107.583 117.53 108.743C117.76 108.773 118.01 108.893 118.2 108.963C125.49 111.273 131.48 114.073 137.4 117.453C143.32 120.843 149.02 124.813 155.79 129.473C156.75 115.403 147.04 104.493 136.07 96.4931C128.51 91.0631 126.01 80.9831 130.3 72.7531C141.54 51.1631 161.68 34.2231 185.13 27.4531C213.56 19.1131 245.87 25.7831 268.91 44.4331C291.95 63.0831 305.12 93.1131 303.64 122.703C303.38 128.923 302.67 135.953 306.72 140.723C309.67 144.113 314.2 145.373 318.34 146.973C341.41 156.203 355.71 183.303 350.2 207.563L350.19 207.513Z" fill="#BE1D2D"/>
<path d="M250.532 326.893C249.512 325.533 247.802 324.473 246.052 324.623C244.102 324.783 242.932 326.533 241.842 327.953C239.502 330.993 236.692 334.153 232.772 335.003C229.982 335.613 227.042 334.893 224.492 333.603C218.752 330.663 214.702 325.273 208.992 322.263C200.492 317.773 191.222 318.883 181.972 319.073C176.002 319.193 166.742 318.043 168.632 309.833C170.262 302.723 172.612 295.843 175.182 288.993C175.382 288.483 175.562 287.963 175.742 287.453C173.202 287.233 170.702 287.113 168.542 287.003C167.242 286.953 165.942 286.913 164.632 286.873C159.702 296.413 154.132 305.593 148.702 314.863C148.072 315.943 147.442 317.093 146.212 317.393C139.692 319.113 134.572 323.833 128.842 327.143C125.292 329.193 120.412 331.263 116.352 329.553C112.992 328.133 110.712 324.663 108.772 321.743C107.542 319.883 106.572 317.393 103.782 317.753C100.872 318.093 99.6115 320.623 98.6415 323.003C95.4415 330.893 99.6816 340.683 108.432 345.673C114.752 349.273 121.652 350.873 128.942 351.023C142.232 351.293 155.532 348.203 167.722 343.063C169.652 342.253 171.582 341.383 173.652 341.123C176.682 340.733 179.052 342.303 181.582 343.703C198.742 353.293 223.892 361.263 242.342 350.583C249.682 346.333 255.632 335.743 250.892 327.463C250.772 327.263 250.642 327.083 250.512 326.893H250.532Z" fill="#BE1D2D"/>
</g>
<defs>
<clipPath id="clip0_202_6">
<rect width="376.64" height="355.69" fill="white"/>
</clipPath>
</defs>
</svg>
