<?xml version="1.0" encoding="UTF-8"?>
<!DOCTYPE svg PUBLIC "-//W3C//DTD SVG 1.1//EN" "http://www.w3.org/Graphics/SVG/1.1/DTD/svg11.dtd">
<svg xmlns="http://www.w3.org/2000/svg" version="1.1" width="2000px" height="2000px" style="shape-rendering:geometricPrecision; text-rendering:geometricPrecision; image-rendering:optimizeQuality; fill-rule:evenodd; clip-rule:evenodd" xmlns:xlink="http://www.w3.org/1999/xlink">
<g><path style="opacity:1" fill="#0c9644" d="M 947.5,-0.5 C 982.167,-0.5 1016.83,-0.5 1051.5,-0.5C 1297.52,15.3906 1510.19,106.891 1689.5,274C 1878.08,457.667 1981.41,681.5 1999.5,945.5C 1999.5,981.5 1999.5,1017.5 1999.5,1053.5C 1981.39,1317.58 1878.06,1541.42 1689.5,1725C 1510.04,1892.34 1297.04,1983.84 1050.5,1999.5C 1016.5,1999.5 982.5,1999.5 948.5,1999.5C 687.024,1982.48 464.524,1881.48 281,1696.5C 108.953,1515.32 15.12,1299.32 -0.5,1048.5C -0.5,1015.83 -0.5,983.167 -0.5,950.5C 14.9399,700.708 108.107,485.375 279,304.5C 462.615,118.636 685.448,16.9696 947.5,-0.5 Z"/></g>
<g><path style="opacity:1" fill="#0c8f44" d="M 1502.5,675.5 C 1486.5,675.5 1470.5,675.5 1454.5,675.5C 1453.5,765.998 1453.17,856.665 1453.5,947.5C 1452.33,857.237 1452.17,766.237 1453,674.5C 1469.76,673.342 1486.59,673.175 1503.5,674C 1502.94,674.383 1502.61,674.883 1502.5,675.5 Z"/></g>
<g><path style="opacity:1" fill="#0d8f44" d="M 1499.5,895.5 C 1500.17,894.167 1501.17,893.167 1502.5,892.5C 1503.17,892.5 1503.5,892.167 1503.5,891.5C 1504.33,819.334 1504.83,747.001 1505,674.5C 1505.67,747.167 1505.67,819.833 1505,892.5C 1503.26,893.758 1501.43,894.758 1499.5,895.5 Z"/></g>
<g><path style="opacity:1" fill="#16934c" d="M 1573.5,675.5 C 1557.66,675.17 1541.99,675.504 1526.5,676.5C 1526.33,742.168 1526.5,807.834 1527,873.5C 1527.72,872.956 1528.22,872.289 1528.5,871.5C 1529.17,871.167 1529.83,870.833 1530.5,870.5C 1531.32,872.308 1530.65,873.808 1528.5,875C 1527.22,875.684 1526.05,875.517 1525,874.5C 1524.33,807.833 1524.33,741.167 1525,674.5C 1541.76,673.342 1558.59,673.175 1575.5,674C 1574.58,674.278 1573.92,674.778 1573.5,675.5 Z"/></g>
<g><path style="opacity:1" fill="#1f9c51" d="M 1454.5,675.5 C 1454.5,675.833 1454.5,676.167 1454.5,676.5C 1454.33,766.501 1454.5,856.501 1455,946.5C 1455.38,945.944 1455.88,945.611 1456.5,945.5C 1456.18,947.048 1455.18,947.715 1453.5,947.5C 1453.17,856.665 1453.5,765.998 1454.5,675.5 Z"/></g>
<g><path style="opacity:1" fill="#d4ece0" d="M 1454.5,676.5 C 1454.83,676.5 1455.17,676.5 1455.5,676.5C 1455.17,766.002 1455.5,855.335 1456.5,944.5C 1456.5,944.833 1456.5,945.167 1456.5,945.5C 1455.88,945.611 1455.38,945.944 1455,946.5C 1454.5,856.501 1454.33,766.501 1454.5,676.5 Z"/></g>
<g><path style="opacity:1" fill="#f9f9f9" d="M 1455.5,676.5 C 1471.17,676.5 1486.83,676.5 1502.5,676.5C 1502.5,748.5 1502.5,820.5 1502.5,892.5C 1501.17,893.167 1500.17,894.167 1499.5,895.5C 1484.05,910.944 1469.72,927.278 1456.5,944.5C 1455.5,855.335 1455.17,766.002 1455.5,676.5 Z"/></g>
<g><path style="opacity:1" fill="#9ed4b1" d="M 1454.5,676.5 C 1454.5,676.167 1454.5,675.833 1454.5,675.5C 1470.5,675.5 1486.5,675.5 1502.5,675.5C 1503.5,747.331 1503.83,819.331 1503.5,891.5C 1503.5,892.167 1503.17,892.5 1502.5,892.5C 1502.5,820.5 1502.5,748.5 1502.5,676.5C 1486.83,676.5 1471.17,676.5 1455.5,676.5C 1455.17,676.5 1454.83,676.5 1454.5,676.5 Z"/></g>
<g><path style="opacity:1" fill="#d9ece0" d="M 1526.5,676.5 C 1526.83,676.5 1527.17,676.5 1527.5,676.5C 1527.17,741.669 1527.5,806.669 1528.5,871.5C 1528.22,872.289 1527.72,872.956 1527,873.5C 1526.5,807.834 1526.33,742.168 1526.5,676.5 Z"/></g>
<g><path style="opacity:1" fill="#f9f9f9" d="M 1527.5,676.5 C 1542.83,676.5 1558.17,676.5 1573.5,676.5C 1573.5,732.167 1573.5,787.833 1573.5,843.5C 1557.64,850.252 1543.31,859.252 1530.5,870.5C 1529.83,870.833 1529.17,871.167 1528.5,871.5C 1527.5,806.669 1527.17,741.669 1527.5,676.5 Z"/></g>
<g><path style="opacity:1" fill="#b3d9c6" d="M 1526.5,676.5 C 1541.99,675.504 1557.66,675.17 1573.5,675.5C 1574.83,731.5 1574.83,787.5 1573.5,843.5C 1573.5,787.833 1573.5,732.167 1573.5,676.5C 1558.17,676.5 1542.83,676.5 1527.5,676.5C 1527.17,676.5 1526.83,676.5 1526.5,676.5 Z"/></g>
<g><path style="opacity:1" fill="#f8f9f9" d="M 438.5,715.5 C 449.317,717.566 460.317,719.4 471.5,721C 481.834,723.614 492.167,726.114 502.5,728.5C 506.216,730.405 510.216,731.739 514.5,732.5C 526.667,737.246 538.667,742.579 550.5,748.5C 557.296,753.07 564.296,757.403 571.5,761.5C 572.172,762.267 573.005,762.934 574,763.5C 574.667,779.5 574.667,795.5 574,811.5C 567.532,806.521 560.699,802.188 553.5,798.5C 542.488,791.829 530.821,786.495 518.5,782.5C 500.801,775.503 482.468,770.503 463.5,767.5C 414.135,758.167 365.135,759.667 316.5,772C 232.132,798.537 175.132,853.37 145.5,936.5C 141.311,947.418 138.311,958.752 136.5,970.5C 136.296,973.518 135.963,976.518 135.5,979.5C 133.969,984.25 133.302,989.25 133.5,994.5C 127.685,1071.31 149.852,1138.65 200,1196.5C 216.768,1214.79 235.935,1229.79 257.5,1241.5C 265.354,1246.59 273.687,1250.93 282.5,1254.5C 320.804,1270.76 360.804,1277.76 402.5,1275.5C 408.739,1275.72 414.739,1275.06 420.5,1273.5C 421.791,1273.74 422.791,1273.4 423.5,1272.5C 456.091,1269.3 486.091,1258.97 513.5,1241.5C 531.793,1230.35 547.126,1216.02 559.5,1198.5C 577.247,1173.29 588.58,1145.29 593.5,1114.5C 595.49,1102.93 596.49,1091.26 596.5,1079.5C 597.497,1061.67 597.83,1043.67 597.5,1025.5C 529.167,1025.5 460.833,1025.5 392.5,1025.5C 392.5,1010.17 392.5,994.833 392.5,979.5C 475.833,979.5 559.167,979.5 642.5,979.5C 642.667,1014.17 642.5,1048.83 642,1083.5C 641.105,1096.58 639.605,1109.58 637.5,1122.5C 637.5,1122.83 637.5,1123.17 637.5,1123.5C 634.754,1135.77 631.754,1148.1 628.5,1160.5C 600.903,1242.59 544.903,1294.09 460.5,1315C 409.408,1326.36 358.408,1326.19 307.5,1314.5C 270.716,1304.77 236.716,1289.11 205.5,1267.5C 163.642,1236.98 131.642,1198.31 109.5,1151.5C 106.208,1141.94 102.541,1132.61 98.5,1123.5C 97.409,1119 96.0757,1114.67 94.5,1110.5C 83.0818,1069.57 79.0818,1027.9 82.5,985.5C 93.366,895.753 135.033,824.42 207.5,771.5C 242.558,747.138 280.891,730.138 322.5,720.5C 339.124,718.005 355.791,715.838 372.5,714C 394.524,713.424 416.524,713.924 438.5,715.5 Z"/></g>
<g><path style="opacity:1" fill="#2a9953" d="M 502.5,728.5 C 492.167,726.114 481.834,723.614 471.5,721C 460.317,719.4 449.317,717.566 438.5,715.5C 440.848,715.33 443.182,714.997 445.5,714.5C 463.041,717.034 480.375,720.534 497.5,725C 499.183,726.286 500.849,727.453 502.5,728.5 Z"/></g>
<g><path style="opacity:1" fill="#20964e" d="M 322.5,720.5 C 280.891,730.138 242.558,747.138 207.5,771.5C 206.402,770.603 206.402,769.77 207.5,769C 242.343,744.579 280.676,728.413 322.5,720.5 Z"/></g>
<g><path style="opacity:1" fill="#299953" d="M 514.5,732.5 C 527.489,735.445 539.822,740.278 551.5,747C 550.944,747.383 550.611,747.883 550.5,748.5C 538.667,742.579 526.667,737.246 514.5,732.5 Z"/></g>
<g><path style="opacity:1" fill="#1d964f" d="M 571.5,761.5 C 573.144,761.286 574.644,761.62 576,762.5C 576.667,779.167 576.667,795.833 576,812.5C 574.493,813.535 572.993,813.368 571.5,812C 566.004,808.084 560.337,804.418 554.5,801C 553.748,800.329 553.414,799.496 553.5,798.5C 560.699,802.188 567.532,806.521 574,811.5C 574.667,795.5 574.667,779.5 574,763.5C 573.005,762.934 572.172,762.267 571.5,761.5 Z"/></g>
<g><path style="opacity:1" fill="#1d954d" d="M 463.5,767.5 C 482.468,770.503 500.801,775.503 518.5,782.5C 518.265,783.097 517.765,783.43 517,783.5C 499.228,777.243 481.061,772.41 462.5,769C 463.056,768.617 463.389,768.117 463.5,767.5 Z"/></g>
<g><path style="opacity:1" fill="#f8f9f9" d="M 421.5,786.5 C 446.464,789.023 471.13,793.69 495.5,800.5C 523.259,809.045 549.259,821.379 573.5,837.5C 574.666,853.156 574.833,868.823 574,884.5C 573.311,885.357 572.478,886.023 571.5,886.5C 561.77,880.303 551.77,874.637 541.5,869.5C 504.084,849.365 464.084,837.699 421.5,834.5C 406.137,833.276 390.804,833.276 375.5,834.5C 360.588,835.261 346.255,838.261 332.5,843.5C 294.319,855.748 263.985,878.415 241.5,911.5C 235.305,919.73 230.305,928.73 226.5,938.5C 222.863,945.405 220.196,952.738 218.5,960.5C 214.929,971.129 212.429,982.129 211,993.5C 209.975,1010.94 210.475,1028.28 212.5,1045.5C 212.5,1045.83 212.5,1046.17 212.5,1046.5C 214.959,1069.87 221.626,1091.87 232.5,1112.5C 251.814,1150.48 281.48,1176.81 321.5,1191.5C 332.916,1196.35 344.916,1199.35 357.5,1200.5C 358.167,1200.5 358.833,1200.5 359.5,1200.5C 361.292,1201.31 363.292,1201.81 365.5,1202C 378.833,1202.67 392.167,1202.67 405.5,1202C 411.749,1201.43 417.749,1200.26 423.5,1198.5C 445.359,1195 465.026,1186.67 482.5,1173.5C 500.591,1161.65 512.591,1145.32 518.5,1124.5C 521.307,1116.54 522.64,1108.2 522.5,1099.5C 479.337,1098.5 436.003,1098.17 392.5,1098.5C 392.5,1082.83 392.5,1067.17 392.5,1051.5C 452.5,1051.5 512.5,1051.5 572.5,1051.5C 572.5,1064.83 572.5,1078.17 572.5,1091.5C 571.633,1108.24 568.633,1124.58 563.5,1140.5C 542.048,1195.11 502.715,1229.61 445.5,1244C 422.127,1249.2 398.46,1251.7 374.5,1251.5C 348.903,1249.51 323.903,1244.18 299.5,1235.5C 247.39,1213.06 208.057,1176.73 181.5,1126.5C 177.483,1116.77 173.483,1107.1 169.5,1097.5C 147.605,1031.24 152.772,967.238 185,905.5C 197.792,883.36 213.626,863.526 232.5,846C 239.022,840.969 245.356,835.803 251.5,830.5C 273.199,815.651 296.532,803.984 321.5,795.5C 354.289,787.074 387.623,784.074 421.5,786.5 Z"/></g>
<g><path style="opacity:1" fill="#2a9954" d="M 495.5,800.5 C 471.13,793.69 446.464,789.023 421.5,786.5C 424.35,786.364 427.183,786.031 430,785.5C 450.187,787.636 470.353,791.469 490.5,797C 492.183,798.286 493.849,799.453 495.5,800.5 Z"/></g>
<g><path style="opacity:1" fill="#229750" d="M 321.5,795.5 C 296.532,803.984 273.199,815.651 251.5,830.5C 251.511,828.983 252.177,827.816 253.5,827C 274.3,812.433 296.967,801.933 321.5,795.5 Z"/></g>
<g><path style="opacity:1" fill="#1c954c" d="M 421.5,834.5 C 464.084,837.699 504.084,849.365 541.5,869.5C 522.249,861.135 502.582,853.635 482.5,847C 462.793,841.74 442.793,838.073 422.5,836C 421.944,835.617 421.611,835.117 421.5,834.5 Z"/></g>
<g><path style="opacity:1" fill="#269851" d="M 1240.5,849.5 C 1211.58,842.213 1182.25,839.546 1152.5,841.5C 1148.79,841.423 1145.12,841.756 1141.5,842.5C 1142.6,841.442 1143.93,840.608 1145.5,840C 1178.62,836.862 1210.96,839.528 1242.5,848C 1241.58,848.278 1240.92,848.778 1240.5,849.5 Z"/></g>
<g><path style="opacity:1" fill="#299953" d="M 375.5,834.5 C 375.389,835.117 375.056,835.617 374.5,836C 361.249,837.73 348.249,840.563 335.5,844.5C 334.583,843.873 333.583,843.539 332.5,843.5C 346.255,838.261 360.588,835.261 375.5,834.5 Z"/></g>
<g><path style="opacity:1" fill="#f8f9f9" d="M 1240.5,849.5 C 1292.03,864.751 1333.03,894.418 1363.5,938.5C 1378.89,961.953 1389.89,987.287 1396.5,1014.5C 1399.16,1029.09 1401.16,1043.75 1402.5,1058.5C 1402.5,1141.83 1402.5,1225.17 1402.5,1308.5C 1386.83,1308.5 1371.17,1308.5 1355.5,1308.5C 1355.83,1228.33 1355.5,1148.33 1354.5,1068.5C 1354.19,1051.65 1351.52,1035.31 1346.5,1019.5C 1332.09,968.538 1301.09,931.372 1253.5,908C 1222.59,894.26 1190.26,888.76 1156.5,891.5C 1141.33,892.631 1126.66,895.631 1112.5,900.5C 1077.38,911.96 1049.05,932.627 1027.5,962.5C 1019.32,972.838 1012.66,984.171 1007.5,996.5C 1003.42,1004 1000.42,1012 998.5,1020.5C 995.166,1030.15 992.833,1040.15 991.5,1050.5C 983.511,1098.11 990.344,1143.45 1012,1186.5C 1025.52,1210.85 1044.02,1230.52 1067.5,1245.5C 1080.18,1254 1093.84,1260.67 1108.5,1265.5C 1108.83,1265.5 1109.17,1265.5 1109.5,1265.5C 1118.4,1269.06 1127.73,1271.39 1137.5,1272.5C 1137.83,1272.5 1138.17,1272.5 1138.5,1272.5C 1143.27,1273.89 1148.27,1274.56 1153.5,1274.5C 1170.79,1276.12 1188.12,1275.45 1205.5,1272.5C 1225.02,1269.44 1242.69,1262.11 1258.5,1250.5C 1259.5,1265.99 1259.83,1281.66 1259.5,1297.5C 1238.83,1312.99 1215.5,1321.49 1189.5,1323C 1136.33,1326.15 1087,1314.15 1041.5,1287C 1032.73,1281.39 1024.39,1275.22 1016.5,1268.5C 1008.5,1261.17 1000.83,1253.5 993.5,1245.5C 976.673,1225.53 963.673,1203.2 954.5,1178.5C 949.861,1164.61 945.861,1150.61 942.5,1136.5C 942.296,1133.48 941.963,1130.48 941.5,1127.5C 939.772,1110.22 939.105,1092.89 939.5,1075.5C 941.064,1039.48 949.397,1005.15 964.5,972.5C 981.969,936.23 1006.97,906.23 1039.5,882.5C 1068.97,861.673 1101.64,848.673 1137.5,843.5C 1142.73,843.556 1147.73,842.889 1152.5,841.5C 1182.25,839.546 1211.58,842.213 1240.5,849.5 Z"/></g>
<g><path style="opacity:1" fill="#f8f9f8" d="M 1741.5,846.5 C 1835.24,873.079 1892.41,934.079 1913,1029.5C 1915.62,1043.38 1917.12,1057.38 1917.5,1071.5C 1917.71,1087.21 1917.05,1102.88 1915.5,1118.5C 1915.5,1118.83 1915.5,1119.17 1915.5,1119.5C 1913.19,1130.71 1910.86,1142.04 1908.5,1153.5C 1885.58,1232.75 1835.25,1286.09 1757.5,1313.5C 1744.83,1316.61 1732.16,1319.27 1719.5,1321.5C 1697.83,1324.1 1676.16,1324.1 1654.5,1321.5C 1632.43,1317.98 1611.1,1311.65 1590.5,1302.5C 1539.36,1278.52 1503.52,1240.19 1483,1187.5C 1482.33,1186.17 1482.33,1184.83 1483,1183.5C 1493.7,1168.32 1504.87,1153.66 1516.5,1139.5C 1524.35,1174.3 1541.35,1203.64 1567.5,1227.5C 1615.7,1269.97 1671.37,1284.13 1734.5,1270C 1787.94,1255.64 1826.27,1223.48 1849.5,1173.5C 1858.69,1154.92 1864.69,1135.26 1867.5,1114.5C 1867.5,1113.83 1867.5,1113.17 1867.5,1112.5C 1868.32,1110.03 1868.82,1107.36 1869,1104.5C 1869.67,1088.83 1869.67,1073.17 1869,1057.5C 1868.22,1049.22 1866.72,1041.22 1864.5,1033.5C 1864.5,1033.17 1864.5,1032.83 1864.5,1032.5C 1861.27,1015.38 1855.27,999.382 1846.5,984.5C 1816.62,929.515 1770.29,898.348 1707.5,891C 1655.61,885.566 1609.28,898.9 1568.5,931C 1542.59,952.239 1519.43,976.073 1499,1002.5C 1474.92,1033.68 1451.08,1065.02 1427.5,1096.5C 1426.5,1073.67 1426.17,1050.67 1426.5,1027.5C 1453.42,985.053 1484.75,945.886 1520.5,910C 1531.17,900.678 1542.17,891.845 1553.5,883.5C 1610.64,843.948 1673.31,831.615 1741.5,846.5 Z"/></g>
<g><path style="opacity:1" fill="#c2e2ce" d="M 1152.5,841.5 C 1147.73,842.889 1142.73,843.556 1137.5,843.5C 1137.5,843.167 1137.5,842.833 1137.5,842.5C 1138.83,842.5 1140.17,842.5 1141.5,842.5C 1145.12,841.756 1148.79,841.423 1152.5,841.5 Z"/></g>
<g><path style="opacity:1" fill="#1c954c" d="M 1741.5,846.5 C 1673.31,831.615 1610.64,843.948 1553.5,883.5C 1553.39,882.883 1553.06,882.383 1552.5,882C 1611.26,841.818 1674.92,829.485 1743.5,845C 1742.58,845.278 1741.92,845.778 1741.5,846.5 Z"/></g>
<g><path style="opacity:1" fill="#1f964e" d="M 852.5,846.5 C 818.476,850.841 787.142,862.508 758.5,881.5C 757.402,880.603 757.402,879.77 758.5,879C 787.202,859.845 818.535,849.011 852.5,846.5 Z"/></g>
<g><path style="opacity:1" fill="#f9f9f9" d="M 961.5,859.5 C 974.408,864.619 986.408,871.285 997.5,879.5C 986.495,889.505 976.161,900.172 966.5,911.5C 948.112,901.477 928.445,895.81 907.5,894.5C 880.585,890.091 854.251,892.424 828.5,901.5C 777.423,919.413 744.256,954.413 729,1006.5C 727.186,1012.72 726.019,1019.05 725.5,1025.5C 723.609,1033.58 722.609,1041.92 722.5,1050.5C 721.501,1136.33 721.167,1222.33 721.5,1308.5C 706.167,1308.5 690.833,1308.5 675.5,1308.5C 675.5,1219.5 675.5,1130.5 675.5,1041.5C 675.5,1038.17 675.5,1034.83 675.5,1031.5C 680.704,976.595 703.37,930.428 743.5,893C 748.53,889.158 753.53,885.325 758.5,881.5C 787.142,862.508 818.476,850.841 852.5,846.5C 852.833,846.5 853.167,846.5 853.5,846.5C 890.555,842.586 926.555,846.919 961.5,859.5 Z"/></g>
<g><path style="opacity:1" fill="#249750" d="M 961.5,859.5 C 926.555,846.919 890.555,842.586 853.5,846.5C 889.521,840.956 924.688,844.289 959,856.5C 960.31,857.13 961.144,858.13 961.5,859.5 Z"/></g>
<g><path style="opacity:1" fill="#1e964e" d="M 1137.5,842.5 C 1137.5,842.833 1137.5,843.167 1137.5,843.5C 1101.64,848.673 1068.97,861.673 1039.5,882.5C 1038.4,881.603 1038.4,880.77 1039.5,880C 1063.25,863.463 1089.25,851.796 1117.5,845C 1124.03,843.058 1130.7,842.225 1137.5,842.5 Z"/></g>
<g><path style="opacity:1" fill="#2a9953" d="M 1156.5,891.5 C 1153.24,894.128 1149.57,894.795 1145.5,893.5C 1135.49,896.17 1125.49,898.836 1115.5,901.5C 1114.42,901.315 1113.42,900.982 1112.5,900.5C 1126.66,895.631 1141.33,892.631 1156.5,891.5 Z"/></g>
<g><path style="opacity:1" fill="#2c9a55" d="M 907.5,894.5 C 892.431,894.504 877.264,894.504 862,894.5C 851.948,897.104 841.782,899.77 831.5,902.5C 830.583,901.873 829.583,901.539 828.5,901.5C 854.251,892.424 880.585,890.091 907.5,894.5 Z"/></g>
<g><path style="opacity:1" fill="#2a9b56" d="M 1680.5,912.5 C 1689.66,911.342 1698.99,911.176 1708.5,912C 1712.4,911.962 1715.73,913.129 1718.5,915.5C 1705.93,913.397 1693.27,912.397 1680.5,912.5 Z"/></g>
<g><path style="opacity:1" fill="#f8f9f8" d="M 1680.5,912.5 C 1693.27,912.397 1705.93,913.397 1718.5,915.5C 1725.46,917.325 1732.46,918.991 1739.5,920.5C 1751.6,925.203 1763.26,930.87 1774.5,937.5C 1803.31,957.321 1823.97,983.655 1836.5,1016.5C 1850.77,1058.68 1851.1,1101.02 1837.5,1143.5C 1817.11,1201.05 1777.11,1236.55 1717.5,1250C 1648.32,1257.82 1594.82,1232.65 1557,1174.5C 1545.43,1156.04 1538.43,1136.04 1536,1114.5C 1547.95,1097.39 1560.45,1080.72 1573.5,1064.5C 1574.49,1067.77 1574.82,1071.1 1574.5,1074.5C 1574.84,1097.19 1580.17,1118.52 1590.5,1138.5C 1603.37,1165.03 1623.37,1184.03 1650.5,1195.5C 1655.08,1198.14 1660.08,1199.81 1665.5,1200.5C 1667.12,1201.04 1668.78,1201.37 1670.5,1201.5C 1676.6,1202.97 1682.93,1203.64 1689.5,1203.5C 1693.68,1203.5 1697.68,1203.17 1701.5,1202.5C 1743.15,1197.36 1771.98,1175.36 1788,1136.5C 1799.51,1103.15 1800.51,1069.48 1791,1035.5C 1769.14,982.139 1729.31,957.639 1671.5,962C 1646.83,965.106 1625.16,974.772 1606.5,991C 1599.03,997.468 1591.86,1004.3 1585,1011.5C 1529.21,1075.77 1476.71,1142.44 1427.5,1211.5C 1426.5,1186.67 1426.17,1161.67 1426.5,1136.5C 1459.41,1092.35 1492.58,1048.35 1526,1004.5C 1540.29,987.863 1555.46,972.196 1571.5,957.5C 1594.81,937.18 1621.47,923.18 1651.5,915.5C 1661.17,914.444 1670.84,913.444 1680.5,912.5 Z"/></g>
<g><path style="opacity:1" fill="#c0e2cd" d="M 1163.5,913.5 C 1158.38,914.806 1153.05,915.473 1147.5,915.5C 1152.6,914.043 1157.93,913.376 1163.5,913.5 Z"/></g>
<g><path style="opacity:1" fill="#f8f9f9" d="M 1163.5,913.5 C 1171.17,913.5 1178.83,913.5 1186.5,913.5C 1204.71,915.147 1222.38,919.481 1239.5,926.5C 1290.95,951.683 1321.28,992.683 1330.5,1049.5C 1331.48,1136.15 1331.82,1222.82 1331.5,1309.5C 1315.83,1309.5 1300.17,1309.5 1284.5,1309.5C 1284.67,1229.17 1284.5,1148.83 1284,1068.5C 1283.82,1063.25 1282.98,1058.25 1281.5,1053.5C 1274.66,1015.51 1254,988.01 1219.5,971C 1169.04,951.038 1125.54,960.872 1089,1000.5C 1074.69,1019.12 1065.86,1040.12 1062.5,1063.5C 1061.04,1068.6 1060.38,1073.93 1060.5,1079.5C 1058.29,1110.01 1065.46,1138.01 1082,1163.5C 1102.04,1187.77 1127.87,1200.77 1159.5,1202.5C 1178.47,1204.5 1197.14,1202.84 1215.5,1197.5C 1231.5,1194.33 1245.83,1187.67 1258.5,1177.5C 1259.67,1193.82 1259.83,1210.16 1259,1226.5C 1252.15,1231.5 1244.99,1235.83 1237.5,1239.5C 1209.18,1250.37 1179.84,1254.21 1149.5,1251C 1137.98,1249.25 1126.64,1246.75 1115.5,1243.5C 1067.41,1227.08 1035.41,1194.74 1019.5,1146.5C 1012.42,1122.69 1009.75,1098.36 1011.5,1073.5C 1014.56,1018.7 1037.56,974.701 1080.5,941.5C 1099.34,928.412 1120.01,919.746 1142.5,915.5C 1144.17,915.5 1145.83,915.5 1147.5,915.5C 1153.05,915.473 1158.38,914.806 1163.5,913.5 Z"/></g>
<g><path style="opacity:1" fill="#289953" d="M 1239.5,926.5 C 1222.38,919.481 1204.71,915.147 1186.5,913.5C 1202.7,912.96 1218.36,915.794 1233.5,922C 1236.11,922.792 1238.11,924.292 1239.5,926.5 Z"/></g>
<g><path style="opacity:1" fill="#f9f9f9" d="M 918.5,969.5 C 901.024,963.51 883.024,962.01 864.5,965C 860.616,965.864 856.949,967.03 853.5,968.5C 826.098,977.569 808.098,995.902 799.5,1023.5C 795.467,1034.01 793.467,1045.01 793.5,1056.5C 792.501,1140.33 792.167,1224.33 792.5,1308.5C 777.167,1308.5 761.833,1308.5 746.5,1308.5C 746.5,1220.17 746.5,1131.83 746.5,1043.5C 749.377,1006.42 764.044,975.09 790.5,949.5C 805.503,935.665 822.837,925.998 842.5,920.5C 880.978,909.748 917.311,914.415 951.5,934.5C 943.799,946.566 937.132,959.233 931.5,972.5C 931,972.833 930.5,973.167 930,973.5C 926.244,971.86 922.411,970.526 918.5,969.5 Z"/></g>
<g><path style="opacity:1" fill="#20964f" d="M 1142.5,915.5 C 1120.01,919.746 1099.34,928.412 1080.5,941.5C 1080.39,940.883 1080.06,940.383 1079.5,940C 1098.35,926.241 1119.35,918.074 1142.5,915.5 Z"/></g>
<g><path style="opacity:1" fill="#2a9a54" d="M 1774.5,937.5 C 1763.26,930.87 1751.6,925.203 1739.5,920.5C 1740.58,920.461 1741.58,920.127 1742.5,919.5C 1754.03,923.93 1765.03,929.43 1775.5,936C 1774.94,936.383 1774.61,936.883 1774.5,937.5 Z"/></g>
<g><path style="opacity:1" fill="#289853" d="M 241.5,911.5 C 241.657,912.873 241.49,914.207 241,915.5C 236.158,923.181 231.825,931.181 228,939.5C 227.617,938.944 227.117,938.611 226.5,938.5C 230.305,928.73 235.305,919.73 241.5,911.5 Z"/></g>
<g><path style="opacity:1" fill="#249750" d="M 842.5,920.5 C 822.837,925.998 805.503,935.665 790.5,949.5C 790.389,948.883 790.056,948.383 789.5,948C 804.415,933.543 822.081,924.376 842.5,920.5 Z"/></g>
<g><path style="opacity:1" fill="#21964f" d="M 1651.5,915.5 C 1621.47,923.18 1594.81,937.18 1571.5,957.5C 1571.28,956.325 1571.61,955.325 1572.5,954.5C 1593.21,936.472 1616.88,923.639 1643.5,916C 1646.15,915.503 1648.81,915.336 1651.5,915.5 Z"/></g>
<g><path style="opacity:1" fill="#2d9a55" d="M 145.5,936.5 C 145.539,937.583 145.873,938.583 146.5,939.5C 144.023,947.407 141.856,955.407 140,963.5C 138.787,965.925 137.621,968.259 136.5,970.5C 138.311,958.752 141.311,947.418 145.5,936.5 Z"/></g>
<g><path style="opacity:1" fill="#2c9b56" d="M 918.5,969.5 C 917.85,969.804 917.183,970.137 916.5,970.5C 906.025,967.557 895.358,965.557 884.5,964.5C 874.189,966.127 863.856,967.46 853.5,968.5C 856.949,967.03 860.616,965.864 864.5,965C 883.024,962.01 901.024,963.51 918.5,969.5 Z"/></g>
<g><path style="opacity:1" fill="#1f964e" d="M 1363.5,938.5 C 1366.09,939.254 1367.92,940.921 1369,943.5C 1379.84,961.846 1388.51,981.179 1395,1001.5C 1396.08,1005.77 1396.58,1010.1 1396.5,1014.5C 1389.89,987.287 1378.89,961.953 1363.5,938.5 Z"/></g>
<g><path style="opacity:1" fill="#1b944c" d="M 637.5,1122.5 C 639.605,1109.58 641.105,1096.58 642,1083.5C 642.5,1048.83 642.667,1014.17 642.5,979.5C 642.5,979.167 642.5,978.833 642.5,978.5C 643.117,978.389 643.617,978.056 644,977.5C 644.667,1010.83 644.667,1044.17 644,1077.5C 643.044,1090.04 642.044,1102.37 641,1114.5C 640.539,1117.58 639.372,1120.24 637.5,1122.5 Z"/></g>
<g><path style="opacity:1" fill="#acd9bf" d="M 642.5,978.5 C 642.5,978.833 642.5,979.167 642.5,979.5C 559.167,979.5 475.833,979.5 392.5,979.5C 392.5,994.833 392.5,1010.17 392.5,1025.5C 392.167,1025.5 391.833,1025.5 391.5,1025.5C 391.5,1009.83 391.5,994.167 391.5,978.5C 475.167,978.5 558.833,978.5 642.5,978.5 Z"/></g>
<g><path style="opacity:1" fill="#289853" d="M 1027.5,962.5 C 1027.51,964.308 1027.01,965.975 1026,967.5C 1019.32,976.851 1013.65,986.851 1009,997.5C 1008.62,996.944 1008.12,996.611 1007.5,996.5C 1012.66,984.171 1019.32,972.838 1027.5,962.5 Z"/></g>
<g><path style="opacity:1" fill="#51ae74" d="M 135.5,979.5 C 135.556,984.731 134.889,989.731 133.5,994.5C 133.302,989.25 133.969,984.25 135.5,979.5 Z"/></g>
<g><path style="opacity:1" fill="#1f954d" d="M 82.5,985.5 C 79.0818,1027.9 83.0818,1069.57 94.5,1110.5C 93.7321,1109.74 93.2321,1108.74 93,1107.5C 92.6667,1107.83 92.3333,1108.17 92,1108.5C 81.1613,1068.13 77.4946,1026.79 81,984.5C 81.3826,985.056 81.8826,985.389 82.5,985.5 Z"/></g>
<g><path style="opacity:1" fill="#299953" d="M 1846.5,984.5 C 1855.27,999.382 1861.27,1015.38 1864.5,1032.5C 1863.78,1032.08 1863.28,1031.42 1863,1030.5C 1862.67,1030.83 1862.33,1031.17 1862,1031.5C 1861,1027.17 1860,1022.83 1859,1018.5C 1854.72,1007.15 1850.55,995.819 1846.5,984.5 Z"/></g>
<g><path style="opacity:1" fill="#1f964d" d="M 218.5,960.5 C 218.678,961.695 219.011,962.862 219.5,964C 216.309,974.623 214.142,985.456 213,996.5C 212.622,1013.02 212.455,1029.36 212.5,1045.5C 210.475,1028.28 209.975,1010.94 211,993.5C 212.429,982.129 214.929,971.129 218.5,960.5 Z"/></g>
<g><path style="opacity:1" fill="#5fb685" d="M 391.5,1026.5 C 391.5,1026.17 391.5,1025.83 391.5,1025.5C 391.833,1025.5 392.167,1025.5 392.5,1025.5C 460.833,1025.5 529.167,1025.5 597.5,1025.5C 597.83,1043.67 597.497,1061.67 596.5,1079.5C 596.5,1077.83 596.5,1076.17 596.5,1074.5C 596.5,1058.5 596.5,1042.5 596.5,1026.5C 528.167,1026.5 459.833,1026.5 391.5,1026.5 Z"/></g>
<g><path style="opacity:1" fill="#068e43" d="M 391.5,1026.5 C 459.833,1026.5 528.167,1026.5 596.5,1026.5C 596.5,1042.5 596.5,1058.5 596.5,1074.5C 595.504,1059.01 595.17,1043.34 595.5,1027.5C 526.762,1027.83 458.762,1027.5 391.5,1026.5 Z"/></g>
<g><path style="opacity:1" fill="#2ba25d" d="M 1425.5,1027.5 C 1425.17,1051.34 1425.5,1075.01 1426.5,1098.5C 1426.44,1099.04 1426.11,1099.38 1425.5,1099.5C 1424.17,1075.34 1424.17,1051.34 1425.5,1027.5 Z"/></g>
<g><path style="opacity:1" fill="#dfece5" d="M 1425.5,1027.5 C 1425.83,1027.5 1426.17,1027.5 1426.5,1027.5C 1426.17,1050.67 1426.5,1073.67 1427.5,1096.5C 1427.17,1097.17 1426.83,1097.83 1426.5,1098.5C 1425.5,1075.01 1425.17,1051.34 1425.5,1027.5 Z"/></g>
<g><path style="opacity:1" fill="#21964f" d="M 1837.5,1143.5 C 1851.1,1101.02 1850.77,1058.68 1836.5,1016.5C 1837.12,1016.39 1837.62,1016.06 1838,1015.5C 1852.27,1056.74 1853.1,1098.58 1840.5,1141C 1839.87,1142.31 1838.87,1143.14 1837.5,1143.5 Z"/></g>
<g><path style="opacity:1" fill="#1d954d" d="M 964.5,972.5 C 949.397,1005.15 941.064,1039.48 939.5,1075.5C 938.596,1076.21 938.263,1077.21 938.5,1078.5C 938.264,1041.1 946.43,1005.43 963,971.5C 963.383,972.056 963.883,972.389 964.5,972.5 Z"/></g>
<g><path style="opacity:1" fill="#299953" d="M 998.5,1020.5 C 997.837,1029.43 996.337,1038.43 994,1047.5C 993.623,1048.94 992.79,1049.94 991.5,1050.5C 992.833,1040.15 995.166,1030.15 998.5,1020.5 Z"/></g>
<g><path style="opacity:1" fill="#109347" d="M 573.5,1051.5 C 513.002,1050.5 452.336,1050.17 391.5,1050.5C 391.5,1066.83 391.5,1083.17 391.5,1099.5C 435.167,1099.5 478.833,1099.5 522.5,1099.5C 522.64,1108.2 521.307,1116.54 518.5,1124.5C 519.249,1116.84 519.916,1109.17 520.5,1101.5C 477.165,1101.67 433.832,1101.5 390.5,1101C 389.167,1083.67 389.167,1066.33 390.5,1049C 451.5,1048.33 512.5,1048.33 573.5,1049C 574.774,1049.98 574.774,1050.81 573.5,1051.5 Z"/></g>
<g><path style="opacity:1" fill="#b0d9c3" d="M 573.5,1051.5 C 573.5,1064.83 573.5,1078.17 573.5,1091.5C 573.167,1091.5 572.833,1091.5 572.5,1091.5C 572.5,1078.17 572.5,1064.83 572.5,1051.5C 512.5,1051.5 452.5,1051.5 392.5,1051.5C 392.5,1067.17 392.5,1082.83 392.5,1098.5C 436.003,1098.17 479.337,1098.5 522.5,1099.5C 478.833,1099.5 435.167,1099.5 391.5,1099.5C 391.5,1083.17 391.5,1066.83 391.5,1050.5C 452.336,1050.17 513.002,1050.5 573.5,1051.5 Z"/></g>
<g><path style="opacity:1" fill="#d4e8dd" d="M 675.5,1041.5 C 675.5,1130.5 675.5,1219.5 675.5,1308.5C 690.833,1308.5 706.167,1308.5 721.5,1308.5C 721.167,1222.33 721.501,1136.33 722.5,1050.5C 722.5,1136.83 722.5,1223.17 722.5,1309.5C 706.5,1309.5 690.5,1309.5 674.5,1309.5C 674.167,1220 674.501,1130.67 675.5,1041.5 Z"/></g>
<g><path style="opacity:1" fill="#279c57" d="M 725.5,1025.5 C 726.034,1032.11 725.867,1038.77 725,1045.5C 724.667,1045.17 724.333,1044.83 724,1044.5C 723.517,1045.45 723.351,1046.45 723.5,1047.5C 723.833,1135 723.499,1222.33 722.5,1309.5C 722.5,1223.17 722.5,1136.83 722.5,1050.5C 722.609,1041.92 723.609,1033.58 725.5,1025.5 Z"/></g>
<g><path style="opacity:1" fill="#0c8f44" d="M 723.5,1047.5 C 724.833,1135.24 724.833,1223.07 723.5,1311C 706.593,1311.82 689.759,1311.66 673,1310.5C 672.168,1223.67 672.334,1137 673.5,1050.5C 673.167,1137 673.501,1223.33 674.5,1309.5C 690.5,1309.5 706.5,1309.5 722.5,1309.5C 723.499,1222.33 723.833,1135 723.5,1047.5 Z"/></g>
<g><path style="opacity:1" fill="#1b974d" d="M 799.5,1023.5 C 799.923,1024.26 800.257,1025.1 800.5,1026C 798.167,1033.32 796.667,1040.82 796,1048.5C 795.832,1136.07 795.332,1223.57 794.5,1311C 777.593,1311.82 760.759,1311.66 744,1310.5C 743.833,1267 743.667,1223.5 743.5,1180C 743.5,1136.16 744.167,1092.66 745.5,1049.5C 745.5,1136.17 745.5,1222.83 745.5,1309.5C 761.5,1309.5 777.5,1309.5 793.5,1309.5C 793.5,1225.17 793.5,1140.83 793.5,1056.5C 793.467,1045.01 795.467,1034.01 799.5,1023.5 Z"/></g>
<g><path style="opacity:1" fill="#d2e9dc" d="M 746.5,1043.5 C 746.5,1131.83 746.5,1220.17 746.5,1308.5C 761.833,1308.5 777.167,1308.5 792.5,1308.5C 792.167,1224.33 792.501,1140.33 793.5,1056.5C 793.5,1140.83 793.5,1225.17 793.5,1309.5C 777.5,1309.5 761.5,1309.5 745.5,1309.5C 745.5,1222.83 745.5,1136.17 745.5,1049.5C 745.205,1047.26 745.539,1045.26 746.5,1043.5 Z"/></g>
<g><path style="opacity:1" fill="#189b50" d="M 675.5,1031.5 C 675.5,1034.83 675.5,1038.17 675.5,1041.5C 674.501,1130.67 674.167,1220 674.5,1309.5C 673.501,1223.33 673.167,1137 673.5,1050.5C 673.334,1043.83 673.5,1037.16 674,1030.5C 674.383,1031.06 674.883,1031.39 675.5,1031.5 Z"/></g>
<g><path style="opacity:1" fill="#2b9a55" d="M 1346.5,1019.5 C 1351.52,1035.31 1354.19,1051.65 1354.5,1068.5C 1354.5,1148.83 1354.5,1229.17 1354.5,1309.5C 1370.68,1309.83 1386.68,1309.5 1402.5,1308.5C 1402.5,1225.17 1402.5,1141.83 1402.5,1058.5C 1403.08,1061.83 1403.92,1065.17 1405,1068.5C 1405.67,1148.83 1405.67,1229.17 1405,1309.5C 1404.5,1310 1404,1310.5 1403.5,1311C 1386.83,1311.67 1370.17,1311.67 1353.5,1311C 1352.82,1226.73 1352.16,1142.39 1351.5,1058C 1351.54,1056.24 1351.88,1054.57 1352.5,1053C 1350.74,1049.49 1349.74,1045.65 1349.5,1041.5C 1349.61,1040.56 1349.94,1039.72 1350.5,1039C 1348.69,1035.44 1347.36,1031.61 1346.5,1027.5C 1347.21,1024.9 1347.21,1022.24 1346.5,1019.5 Z"/></g>
<g><path style="opacity:1" fill="#e9f1ef" d="M 1354.5,1068.5 C 1355.5,1148.33 1355.83,1228.33 1355.5,1308.5C 1371.17,1308.5 1386.83,1308.5 1402.5,1308.5C 1386.68,1309.5 1370.68,1309.83 1354.5,1309.5C 1354.5,1229.17 1354.5,1148.83 1354.5,1068.5 Z"/></g>
<g><path style="opacity:1" fill="#389f5e" d="M 1330.5,1049.5 C 1332.26,1052.7 1333.09,1056.37 1333,1060.5C 1333.83,1144.07 1333.66,1227.57 1332.5,1311C 1315.93,1311.82 1299.43,1311.66 1283,1310.5C 1282.67,1231.5 1282.33,1152.5 1282,1073.5C 1280.82,1066.81 1280.65,1060.15 1281.5,1053.5C 1282.98,1058.25 1283.82,1063.25 1284,1068.5C 1284.5,1148.83 1284.67,1229.17 1284.5,1309.5C 1300.17,1309.5 1315.83,1309.5 1331.5,1309.5C 1331.82,1222.82 1331.48,1136.15 1330.5,1049.5 Z"/></g>
<g><path style="opacity:1" fill="#62b683" d="M 1062.5,1063.5 C 1062.47,1069.05 1061.81,1074.38 1060.5,1079.5C 1060.38,1073.93 1061.04,1068.6 1062.5,1063.5 Z"/></g>
<g><path style="opacity:1" fill="#1c954c" d="M 212.5,1046.5 C 215.693,1058.56 218.859,1070.89 222,1083.5C 225.151,1092.79 228.985,1101.79 233.5,1110.5C 233.137,1111.18 232.804,1111.85 232.5,1112.5C 221.626,1091.87 214.959,1069.87 212.5,1046.5 Z"/></g>
<g><path style="opacity:1" fill="#22964f" d="M 1864.5,1033.5 C 1866.72,1041.22 1868.22,1049.22 1869,1057.5C 1869.67,1073.17 1869.67,1088.83 1869,1104.5C 1868.82,1107.36 1868.32,1110.03 1867.5,1112.5C 1867.33,1110.15 1867,1107.82 1866.5,1105.5C 1866.71,1104.01 1867.38,1102.84 1868.5,1102C 1868.47,1088.86 1868.47,1075.69 1868.5,1062.5C 1866.68,1054.78 1865.02,1046.95 1863.5,1039C 1864.23,1037.23 1864.57,1035.4 1864.5,1033.5 Z"/></g>
<g><path style="opacity:1" fill="#349f5c" d="M 1917.5,1071.5 C 1919.46,1085.71 1919.46,1100.04 1917.5,1114.5C 1916.83,1115.95 1916.16,1117.28 1915.5,1118.5C 1917.05,1102.88 1917.71,1087.21 1917.5,1071.5 Z"/></g>
<g><path style="opacity:1" fill="#1c954d" d="M 1574.5,1074.5 C 1576.7,1086.02 1578.87,1097.69 1581,1109.5C 1583.41,1117.72 1586.41,1125.72 1590,1133.5C 1590.49,1135.13 1590.66,1136.8 1590.5,1138.5C 1580.17,1118.52 1574.84,1097.19 1574.5,1074.5 Z"/></g>
<g><path style="opacity:1" fill="#43a466" d="M 939.5,1075.5 C 939.105,1092.89 939.772,1110.22 941.5,1127.5C 940.71,1126.39 940.21,1125.06 940,1123.5C 939.667,1123.83 939.333,1124.17 939,1124.5C 937.718,1109.19 937.552,1093.86 938.5,1078.5C 938.263,1077.21 938.596,1076.21 939.5,1075.5 Z"/></g>
<g><path style="opacity:1" fill="#2b9954" d="M 169.5,1097.5 C 173.483,1107.1 177.483,1116.77 181.5,1126.5C 180.624,1126.63 179.957,1126.3 179.5,1125.5C 174.44,1116.73 171.107,1107.39 169.5,1097.5 Z"/></g>
<g><path style="opacity:1" fill="#2c9a55" d="M 572.5,1091.5 C 572.833,1091.5 573.167,1091.5 573.5,1091.5C 574.089,1105.74 572.256,1119.74 568,1133.5C 565.697,1134.74 565.197,1136.41 566.5,1138.5C 565.643,1139.43 564.643,1140.09 563.5,1140.5C 568.633,1124.58 571.633,1108.24 572.5,1091.5 Z"/></g>
<g><path style="opacity:1" fill="#2b9a55" d="M 98.5,1123.5 C 102.541,1132.61 106.208,1141.94 109.5,1151.5C 108.624,1151.63 107.957,1151.3 107.5,1150.5C 103.046,1141.94 100.046,1132.94 98.5,1123.5 Z"/></g>
<g><path style="opacity:1" fill="#41a263" d="M 1011.5,1073.5 C 1009.75,1098.36 1012.42,1122.69 1019.5,1146.5C 1018.21,1145.71 1017.04,1144.71 1016,1143.5C 1009.07,1120.36 1007.57,1097.03 1011.5,1073.5 Z"/></g>
<g><path style="opacity:1" fill="#2ca25d" d="M 1425.5,1137.5 C 1425.33,1162.84 1425.5,1188.17 1426,1213.5C 1426.38,1212.94 1426.88,1212.61 1427.5,1212.5C 1427.18,1214.05 1426.18,1214.71 1424.5,1214.5C 1424.17,1188.66 1424.5,1162.99 1425.5,1137.5 Z"/></g>
<g><path style="opacity:1" fill="#e0ece6" d="M 1426.5,1136.5 C 1426.17,1161.67 1426.5,1186.67 1427.5,1211.5C 1427.5,1211.83 1427.5,1212.17 1427.5,1212.5C 1426.88,1212.61 1426.38,1212.94 1426,1213.5C 1425.5,1188.17 1425.33,1162.84 1425.5,1137.5C 1425.5,1136.83 1425.83,1136.5 1426.5,1136.5 Z"/></g>
<g><path style="opacity:1" fill="#2f9b56" d="M 637.5,1123.5 C 637.225,1136.6 634.725,1149.27 630,1161.5C 629.617,1160.94 629.117,1160.61 628.5,1160.5C 631.754,1148.1 634.754,1135.77 637.5,1123.5 Z"/></g>
<g><path style="opacity:1" fill="#1d954d" d="M 1867.5,1114.5 C 1864.69,1135.26 1858.69,1154.92 1849.5,1173.5C 1851.48,1165.2 1854.31,1157.2 1858,1149.5C 1860.81,1139.28 1863.14,1128.94 1865,1118.5C 1865.2,1116.68 1866.03,1115.35 1867.5,1114.5 Z"/></g>
<g><path style="opacity:1" fill="#1f964e" d="M 593.5,1114.5 C 588.58,1145.29 577.247,1173.29 559.5,1198.5C 559.343,1197.13 559.51,1195.79 560,1194.5C 575.859,1170.77 586.359,1144.77 591.5,1116.5C 591.747,1115.29 592.414,1114.62 593.5,1114.5 Z"/></g>
<g><path style="opacity:1" fill="#2d9a55" d="M 1915.5,1119.5 C 1915.32,1121.59 1915.65,1123.59 1916.5,1125.5C 1914.84,1135.27 1912.67,1145.27 1910,1155.5C 1909.72,1154.58 1909.22,1153.92 1908.5,1153.5C 1910.86,1142.04 1913.19,1130.71 1915.5,1119.5 Z"/></g>
<g><path style="opacity:1" fill="#2b9a54" d="M 942.5,1136.5 C 945.861,1150.61 949.861,1164.61 954.5,1178.5C 952.589,1178.43 951.422,1177.43 951,1175.5C 946.105,1162.92 943.272,1149.92 942.5,1136.5 Z"/></g>
<g><path style="opacity:1" fill="#1d954d" d="M 482.5,1173.5 C 465.026,1186.67 445.359,1195 423.5,1198.5C 439.527,1193.87 455.194,1187.7 470.5,1180C 474.11,1178.06 477.443,1175.72 480.5,1173C 481.437,1172.31 482.103,1172.47 482.5,1173.5 Z"/></g>
<g><path style="opacity:1" fill="#2e9b56" d="M 321.5,1191.5 C 324.187,1191.34 326.854,1191.5 329.5,1192C 337.662,1194.71 345.662,1196.71 353.5,1198C 355.32,1198.2 356.653,1199.03 357.5,1200.5C 344.916,1199.35 332.916,1196.35 321.5,1191.5 Z"/></g>
<g><path style="opacity:1" fill="#359e5b" d="M 1650.5,1195.5 C 1656.3,1195.19 1661.3,1196.86 1665.5,1200.5C 1660.08,1199.81 1655.08,1198.14 1650.5,1195.5 Z"/></g>
<g><path style="opacity:1" fill="#269953" d="M 1215.5,1197.5 C 1197.14,1202.84 1178.47,1204.5 1159.5,1202.5C 1177.63,1203.18 1195.46,1201.18 1213,1196.5C 1213.9,1196.74 1214.74,1197.08 1215.5,1197.5 Z"/></g>
<g><path style="opacity:1" fill="#2d9b56" d="M 423.5,1198.5 C 417.749,1200.26 411.749,1201.43 405.5,1202C 392.167,1202.67 378.833,1202.67 365.5,1202C 363.292,1201.81 361.292,1201.31 359.5,1200.5C 373.785,1200.46 388.118,1200.29 402.5,1200C 408.527,1199.33 414.527,1198.5 420.5,1197.5C 421.584,1197.69 422.584,1198.02 423.5,1198.5 Z"/></g>
<g><path style="opacity:1" fill="#4aab71" d="M 1670.5,1201.5 C 1680.81,1202.27 1691.15,1202.6 1701.5,1202.5C 1697.68,1203.17 1693.68,1203.5 1689.5,1203.5C 1682.93,1203.64 1676.6,1202.97 1670.5,1201.5 Z"/></g>
<g><path style="opacity:1" fill="#1f964e" d="M 1567.5,1227.5 C 1541.35,1203.64 1524.35,1174.3 1516.5,1139.5C 1517.12,1139.39 1517.62,1139.06 1518,1138.5C 1526.04,1172.84 1542.87,1202.01 1568.5,1226C 1567.94,1226.38 1567.61,1226.88 1567.5,1227.5 Z"/></g>
<g><path style="opacity:1" fill="#279953" d="M 257.5,1241.5 C 265.499,1244 273.166,1247.33 280.5,1251.5C 281.425,1252.36 282.092,1253.36 282.5,1254.5C 273.687,1250.93 265.354,1246.59 257.5,1241.5 Z"/></g>
<g><path style="opacity:1" fill="#239750" d="M 299.5,1235.5 C 323.903,1244.18 348.903,1249.51 374.5,1251.5C 349.361,1251.75 325.027,1247.25 301.5,1238C 300.244,1237.58 299.577,1236.75 299.5,1235.5 Z"/></g>
<g><path style="opacity:1" fill="#7bc095" d="M 1258.5,1250.5 C 1259.17,1249.17 1259.83,1249.17 1260.5,1250.5C 1260.83,1266.34 1260.5,1282.01 1259.5,1297.5C 1259.83,1281.66 1259.5,1265.99 1258.5,1250.5 Z"/></g>
<g><path style="opacity:1" fill="#2a9953" d="M 1237.5,1239.5 C 1237.06,1241.11 1236.06,1242.28 1234.5,1243C 1227.22,1245.54 1219.89,1247.87 1212.5,1250C 1199.43,1252.28 1186.1,1253.45 1172.5,1253.5C 1152.66,1254.03 1133.33,1251.19 1114.5,1245C 1115.06,1244.62 1115.39,1244.12 1115.5,1243.5C 1126.64,1246.75 1137.98,1249.25 1149.5,1251C 1179.84,1254.21 1209.18,1250.37 1237.5,1239.5 Z"/></g>
<g><path style="opacity:1" fill="#269853" d="M 993.5,1245.5 C 1000.83,1253.5 1008.5,1261.17 1016.5,1268.5C 1013.86,1268.05 1011.53,1266.88 1009.5,1265C 1005.33,1260.83 1001.17,1256.67 997,1252.5C 995.295,1250.42 994.128,1248.09 993.5,1245.5 Z"/></g>
<g><path style="opacity:1" fill="#299953" d="M 1067.5,1245.5 C 1073.84,1247.5 1079.84,1250.34 1085.5,1254C 1091.94,1257.22 1098.61,1259.89 1105.5,1262C 1107.06,1262.72 1108.06,1263.89 1108.5,1265.5C 1093.84,1260.67 1080.18,1254 1067.5,1245.5 Z"/></g>
<g><path style="opacity:1" fill="#1d954d" d="M 513.5,1241.5 C 486.091,1258.97 456.091,1269.3 423.5,1272.5C 423.918,1271.78 424.584,1271.28 425.5,1271C 456.688,1266.88 485.688,1256.72 512.5,1240.5C 513.107,1240.62 513.44,1240.96 513.5,1241.5 Z"/></g>
<g><path style="opacity:1" fill="#1c954d" d="M 1260.5,1250.5 C 1259.83,1249.17 1259.17,1249.17 1258.5,1250.5C 1242.69,1262.11 1225.02,1269.44 1205.5,1272.5C 1205.62,1271.41 1206.29,1270.75 1207.5,1270.5C 1226.79,1267.08 1244.12,1259.41 1259.5,1247.5C 1261.4,1248.26 1261.74,1249.26 1260.5,1250.5 Z"/></g>
<g><path style="opacity:1" fill="#2c9a55" d="M 1109.5,1265.5 C 1116.62,1265.86 1123.62,1267.03 1130.5,1269C 1133.18,1269.67 1135.51,1270.84 1137.5,1272.5C 1127.73,1271.39 1118.4,1269.06 1109.5,1265.5 Z"/></g>
<g><path style="opacity:1" fill="#50ad72" d="M 1138.5,1272.5 C 1143.75,1272.3 1148.75,1272.97 1153.5,1274.5C 1148.27,1274.56 1143.27,1273.89 1138.5,1272.5 Z"/></g>
<g><path style="opacity:1" fill="#c5e3d2" d="M 420.5,1273.5 C 414.739,1275.06 408.739,1275.72 402.5,1275.5C 408.301,1274.32 414.301,1273.65 420.5,1273.5 Z"/></g>
<g><path style="opacity:1" fill="#1d954d" d="M 205.5,1267.5 C 236.716,1289.11 270.716,1304.77 307.5,1314.5C 271.67,1306.92 238.67,1292.75 208.5,1272C 206.859,1270.87 205.859,1269.37 205.5,1267.5 Z"/></g>
<g><path style="opacity:1" fill="#1a944c" d="M 1590.5,1302.5 C 1611.1,1311.65 1632.43,1317.98 1654.5,1321.5C 1632.8,1319.67 1611.8,1314.17 1591.5,1305C 1590.75,1304.33 1590.41,1303.5 1590.5,1302.5 Z"/></g>
<g><path style="opacity:1" fill="#2c9a55" d="M 1757.5,1313.5 C 1756.94,1314.79 1755.94,1315.62 1754.5,1316C 1743.15,1319.75 1731.48,1321.59 1719.5,1321.5C 1732.16,1319.27 1744.83,1316.61 1757.5,1313.5 Z"/></g>
</svg>
